<?xml version="1.0" encoding="UTF-8"?>
<svg id="Capa_2" xmlns="http://www.w3.org/2000/svg" version="1.1" viewBox="0 0 262 141.1">
  <!-- Generator: Adobe Illustrator 29.3.1, SVG Export Plug-In . SVG Version: 2.1.0 Build 151)  -->
  <defs>
    <style>
      .st0 {
        fill: #523c57;
      }
    </style>
  </defs>
  <g id="Capa_1-2">
    <g>
      <g>
        <g>
          <g>
            <path class="st0" d="M83,7.2V0h31.9v7.2h-11.7v31.8h-8.6V7.2h-11.7Z"/>
            <path class="st0" d="M128,0v14.9h15.8V0h8.6v39h-8.6v-16.8h-15.8v16.8h-8.6V0h8.6Z"/>
            <path class="st0" d="M189,0v7.2h-20.6v8.3h18.9v6.7h-18.9v9.6h21v7.2h-29.6V0h29.1Z"/>
          </g>
          <g id="R0OSP5.tif">
            <g>
              <path class="st0" d="M205.2,29.5c4.5-.4,8.1,3.6,6.8,8-1.5,5.3-8.9,6.1-11.5,1.3-2.1-3.8.3-8.9,4.7-9.3ZM205.3,30.8c-3.8.4-5.6,5.2-3.2,8.1,2.6,3.1,7.7,2.1,8.7-1.8,1-3.6-1.9-6.7-5.5-6.3h0Z"/>
              <path class="st0" d="M206.3,32.3c.4,0,1,.2,1.3.4,1.2.7.9,2.8-.4,3.1,1.1.6,1.4,2,2,3.1h-1.9c-.3-.5-.7-1.8-1.1-2.2-.2-.2-1.3-.5-1.3-.2v2.4h-1.7v-6.6c1,0,2.1,0,3,0h0ZM204.9,35.2h1.1c0,0,.4-.2.5-.2.4-.4.2-1.4-.3-1.4h-1.2v1.7h0Z"/>
            </g>
          </g>
        </g>
        <g>
          <path class="st0" d="M61.2,54.2l-9.1,38.4h-.2l-9.5-38.4h-11.5s-7.8,1.6-8.5,24.3c-.1,4.8-.3,9.1-1,12.8l-.2.7h-.1l-8.8-37.9H0l14.8,55.7s11.2,2.2,14.8-11.3c3-12.8.9-20.7,4.6-34,0,0,0,0,0,0h.2s11.7,45.3,11.7,45.3h12.2l15-55.7h-12,0Z"/>
          <g>
            <path class="st0" d="M100.1,53.9l20.4,54.5h-12.4l-4.1-12.1h-20.4l-4.3,12.1h-12.1l20.6-54.5s12.3,0,12.3,0ZM100.8,87.4l-6.9-20h-.2l-7.1,20h14.1,0Z"/>
            <path class="st0" d="M130.3,108.4l-17.6-54.5h12.3l12.1,38.3h.1l12.3-38.3h12.4l-18.1,54.5h-13.5,0Z"/>
            <path class="st0" d="M184.3,108.4l-17.6-54.5h12.3l12.1,38.3h.1l12.3-38.3h12.4l-18.1,54.5h-13.5,0Z"/>
            <path class="st0" d="M261.4,53.9v10.1h-28.8v11.7h26.4v9.3h-26.4v13.4h29.4v10.1h-41.4v-54.5h40.8Z"/>
          </g>
        </g>
      </g>
      <g>
        <path class="st0" d="M26.8,133.4c0-4.2,3.3-7.7,7.6-7.7s7.6,3.4,7.6,7.7-3.3,7.6-7.6,7.6-7.6-3.4-7.6-7.6ZM39.3,133.4c0-2.9-2.1-5.2-5-5.2s-5,2.4-5,5.2,2.1,5.2,5,5.2,5-2.4,5-5.2Z"/>
        <path class="st0" d="M52.7,128.2c-2.8,0-5.2,2.2-5.2,5.2s2.4,5.2,5.2,5.2,3.5-1.1,4-1.6v2.6c-.7.6-2.1,1.5-4.4,1.5-4.2,0-7.4-3.3-7.4-7.6s3.3-7.7,7.4-7.7,3.7.9,4.4,1.5v2.6c-.5-.6-1.9-1.6-4-1.6h0Z"/>
        <path class="st0" d="M62.9,128.4v3.6h4.5v2.4h-4.5v3.9h5.8v2.4h-8.3v-14.9h8.3v2.4h-5.8Z"/>
        <path class="st0" d="M81.1,137.6h-5.9l-1.2,3.3h-2.7l5.4-14.9h2.9l5.4,14.9h-2.7l-1.2-3.3h0ZM80.2,135.2l-2.1-5.8-2.1,5.8h4.2,0Z"/>
        <path class="st0" d="M100.7,126v14.9h-2.6l-7.5-10.5v10.5h-2.6v-14.9h2.6l7.5,10.5v-10.5h2.6Z"/>
        <path class="st0" d="M116.8,136.2h-2.6v4.7h-2.6v-14.9h5.6c2.7,0,5.2,1.9,5.2,5.1s-1.3,3.9-3,4.6l3.1,5.1h-2.9l-2.8-4.7h0ZM114.2,133.8h3c1.4,0,2.6-1,2.6-2.7s-1.2-2.7-2.6-2.7h-3v5.3Z"/>
        <path class="st0" d="M128.8,128.4v3.6h4.5v2.4h-4.5v3.9h5.8v2.4h-8.3v-14.9h8.3v2.4h-5.8Z"/>
        <path class="st0" d="M139.6,136.4c0,1.6,1.2,2.3,2.4,2.3s2.1-.7,2.1-1.6-1.1-1.8-2.8-2.7c-3-1.7-4-2.8-4-4.8s1.9-3.8,4.4-3.8,4.5,2,4.6,4.5h-2.6c0-1.3-.8-2.1-2-2.1s-1.8.6-1.8,1.5.9,1.6,2.4,2.4c2.8,1.5,4.5,2.8,4.5,5.1s-2.1,3.9-4.7,3.9-5-2.3-5-4.7h2.6Z"/>
        <path class="st0" d="M150.1,126h2.6v14.9h-2.6v-14.9Z"/>
        <path class="st0" d="M168.4,133.4c0,4.2-2.9,7.4-7.2,7.4h-5.1v-14.9h5.1c4.2,0,7.2,3.3,7.2,7.4ZM165.9,133.4c0-3.2-2-5-4.6-5h-2.5v10h2.5c2.6,0,4.6-1.8,4.6-5h0Z"/>
        <path class="st0" d="M174.2,128.4v3.6h4.5v2.4h-4.5v3.9h5.8v2.4h-8.3v-14.9h8.3v2.4h-5.8Z"/>
        <path class="st0" d="M196.3,126v14.9h-2.6l-7.5-10.5v10.5h-2.6v-14.9h2.6l7.5,10.5v-10.5h2.6Z"/>
        <path class="st0" d="M207.5,128.2c-2.8,0-5.2,2.2-5.2,5.2s2.4,5.2,5.2,5.2,3.5-1.1,4.1-1.6v2.6c-.6.6-2.1,1.5-4.4,1.5-4.1,0-7.4-3.3-7.4-7.6s3.3-7.7,7.4-7.7,3.7.9,4.4,1.5v2.6c-.6-.6-1.9-1.6-4.1-1.6h0Z"/>
        <path class="st0" d="M217.7,128.4v3.6h4.5v2.4h-4.5v3.9h5.8v2.4h-8.3v-14.9h8.3v2.4h-5.8Z"/>
        <path class="st0" d="M228.5,136.4c0,1.6,1.2,2.3,2.4,2.3s2.1-.7,2.1-1.6-1.1-1.8-2.8-2.7c-3-1.7-4-2.8-4-4.8s1.9-3.8,4.4-3.8,4.5,2,4.6,4.5h-2.6c0-1.3-.8-2.1-2-2.1s-1.8.6-1.8,1.5.9,1.6,2.4,2.4c2.8,1.5,4.5,2.8,4.5,5.1s-2.1,3.9-4.7,3.9-5-2.3-5-4.7h2.6Z"/>
      </g>
    </g>
  </g>
</svg>