<?xml version="1.0" encoding="UTF-8"?>
<svg id="Capa_2" data-name="Capa 2" xmlns="http://www.w3.org/2000/svg" viewBox="0 0 262 141.09">
  <defs>
    <style>
      .cls-1 {
        fill: #073955;
      }
    </style>
  </defs>
  <g id="Capa_1-2" data-name="Capa 1">
    <g>
      <g>
        <g>
          <g>
            <path class="cls-1" d="M83.04,7.2V0h31.91v7.2h-11.67v31.75h-8.56V7.2h-11.68Z"/>
            <path class="cls-1" d="M127.99,0v14.95h15.76V0h8.56v38.95h-8.56v-16.8h-15.76v16.8h-8.56V0h8.56Z"/>
            <path class="cls-1" d="M188.98,0v7.2h-20.57v8.34h18.88v6.65h-18.88v9.55h21v7.2h-29.57V0h29.13Z"/>
          </g>
          <g id="R0OSP5.tif">
            <g>
              <path class="cls-1" d="M205.23,29.51c4.54-.42,8.07,3.57,6.81,8.02-1.5,5.3-8.87,6.09-11.53,1.26-2.1-3.82.33-8.86,4.72-9.28ZM205.3,30.79c-3.78.4-5.6,5.19-3.18,8.12,2.58,3.12,7.66,2.09,8.71-1.82.96-3.58-1.91-6.68-5.53-6.3h0Z"/>
              <path class="cls-1" d="M206.3,32.3c.35.03.99.19,1.3.36,1.2.67.95,2.83-.44,3.12,1.13.64,1.41,2.05,2.04,3.1h-1.85c-.32-.55-.71-1.81-1.14-2.21-.23-.21-1.28-.45-1.28-.19v2.39h-1.66v-6.57c.98.06,2.06-.08,3.03,0h0ZM204.93,35.24h1.05c.08,0,.4-.16.47-.23.39-.38.19-1.43-.34-1.43h-1.18v1.66h0Z"/>
            </g>
          </g>
        </g>
        <g>
          <path class="cls-1" d="M61.18,54.19l-9.13,38.39h-.15l-9.52-38.39h-11.47s-7.79,1.64-8.47,24.35c-.14,4.75-.34,9.05-1.02,12.84l-.19.74h-.15l-8.82-37.92H0l14.75,55.72s11.25,2.15,14.78-11.32c3-12.79.88-20.65,4.61-33.98,0-.01,0-.03.01-.03h0s.16-.01.16-.01l11.73,45.34h12.17l14.98-55.72h-12.02Z"/>
          <g>
            <path class="cls-1" d="M100.08,53.92l20.39,54.53h-12.45l-4.12-12.14h-20.39l-4.28,12.14h-12.07l20.62-54.53h12.3ZM100.76,87.37l-6.87-20.01h-.15l-7.1,20.01h14.13Z"/>
            <path class="cls-1" d="M130.26,108.45l-17.64-54.53h12.3l12.14,38.34h.15l12.3-38.34h12.37l-18.1,54.53h-13.52Z"/>
            <path class="cls-1" d="M184.33,108.45l-17.64-54.53h12.3l12.14,38.34h.15l12.3-38.34h12.37l-18.1,54.53h-13.52Z"/>
            <path class="cls-1" d="M261.39,53.92v10.08h-28.79v11.68h26.43v9.32h-26.43v13.36h29.4v10.08h-41.39v-54.53h40.78Z"/>
          </g>
        </g>
      </g>
      <g>
        <path class="cls-1" d="M26.79,133.44c0-4.23,3.33-7.65,7.57-7.65s7.59,3.42,7.59,7.65-3.33,7.65-7.59,7.65-7.57-3.42-7.57-7.65ZM39.34,133.44c0-2.85-2.1-5.22-4.99-5.22s-4.99,2.37-4.99,5.22,2.09,5.22,4.99,5.22,4.99-2.37,4.99-5.22Z"/>
        <path class="cls-1" d="M52.69,128.22c-2.81,0-5.18,2.16-5.18,5.22s2.37,5.22,5.18,5.22c2.14,0,3.52-1.07,4.05-1.63v2.6c-.65.57-2.09,1.47-4.36,1.47-4.15,0-7.44-3.33-7.44-7.65s3.29-7.65,7.44-7.65c2.26,0,3.71.9,4.36,1.47v2.6c-.55-.59-1.91-1.63-4.05-1.63Z"/>
        <path class="cls-1" d="M62.88,128.44v3.65h4.53v2.43h-4.53v3.94h5.76v2.43h-8.34v-14.88h8.34v2.43h-5.76,0Z"/>
        <path class="cls-1" d="M81.11,137.61h-5.95l-1.17,3.27h-2.68l5.36-14.88h2.94l5.36,14.88h-2.68l-1.17-3.27h0ZM80.23,135.16l-2.09-5.81-2.09,5.81h4.19,0Z"/>
        <path class="cls-1" d="M100.68,126.01v14.88h-2.58l-7.54-10.54v10.54h-2.58v-14.88h2.58l7.54,10.54v-10.54h2.58Z"/>
        <path class="cls-1" d="M116.82,136.21h-2.62v4.67h-2.58v-14.88h5.6c2.7,0,5.22,1.93,5.22,5.11,0,2.26-1.28,3.9-3,4.63l3.14,5.13h-2.91l-2.85-4.67h0ZM114.2,133.78h3.02c1.45,0,2.64-1.01,2.64-2.66s-1.19-2.68-2.64-2.68h-3.02v5.34Z"/>
        <path class="cls-1" d="M128.78,128.44v3.65h4.53v2.43h-4.53v3.94h5.76v2.43h-8.34v-14.88h8.34v2.43h-5.76Z"/>
        <path class="cls-1" d="M139.57,136.38c.08,1.55,1.19,2.29,2.45,2.29,1.38,0,2.14-.71,2.14-1.59,0-1.19-1.13-1.76-2.83-2.68-3-1.72-4.02-2.79-4.02-4.78,0-2.26,1.95-3.82,4.4-3.82,2.7,0,4.48,2.01,4.55,4.55h-2.58c-.06-1.32-.84-2.11-1.97-2.11-.98,0-1.82.59-1.82,1.49,0,1.13.86,1.57,2.37,2.37,2.83,1.53,4.48,2.81,4.48,5.07,0,2.51-2.11,3.94-4.72,3.94-3.12,0-4.97-2.26-5.03-4.72h2.58Z"/>
        <path class="cls-1" d="M150.09,126.01h2.58v14.88h-2.58v-14.88Z"/>
        <path class="cls-1" d="M168.45,133.44c0,4.17-2.93,7.44-7.17,7.44h-5.11v-14.88h5.11c4.23,0,7.17,3.27,7.17,7.44ZM165.87,133.44c0-3.23-2.01-5.01-4.59-5.01h-2.54v10.02h2.54c2.58,0,4.59-1.78,4.59-5.01Z"/>
        <path class="cls-1" d="M174.19,128.44v3.65h4.53v2.43h-4.53v3.94h5.76v2.43h-8.34v-14.88h8.34v2.43h-5.76,0Z"/>
        <path class="cls-1" d="M196.3,126.01v14.88h-2.58l-7.54-10.54v10.54h-2.58v-14.88h2.58l7.54,10.54v-10.54h2.58Z"/>
        <path class="cls-1" d="M207.49,128.22c-2.81,0-5.18,2.16-5.18,5.22s2.37,5.22,5.18,5.22c2.14,0,3.52-1.07,4.05-1.63v2.6c-.65.57-2.1,1.47-4.36,1.47-4.15,0-7.44-3.33-7.44-7.65s3.29-7.65,7.44-7.65c2.26,0,3.71.9,4.36,1.47v2.6c-.55-.59-1.91-1.63-4.05-1.63Z"/>
        <path class="cls-1" d="M217.67,128.44v3.65h4.53v2.43h-4.53v3.94h5.76v2.43h-8.34v-14.88h8.34v2.43h-5.76Z"/>
        <path class="cls-1" d="M228.46,136.38c.08,1.55,1.19,2.29,2.45,2.29,1.38,0,2.14-.71,2.14-1.59,0-1.19-1.13-1.76-2.83-2.68-3-1.72-4.02-2.79-4.02-4.78,0-2.26,1.95-3.82,4.4-3.82,2.7,0,4.48,2.01,4.55,4.55h-2.58c-.06-1.32-.84-2.11-1.97-2.11-.98,0-1.82.59-1.82,1.49,0,1.13.86,1.57,2.37,2.37,2.83,1.53,4.48,2.81,4.48,5.07,0,2.51-2.11,3.94-4.72,3.94-3.12,0-4.97-2.26-5.03-4.72h2.58,0Z"/>
      </g>
    </g>
  </g>
</svg>