<svg width="466" height="461" viewBox="0 0 466 461" fill="none" xmlns="http://www.w3.org/2000/svg">
<path d="M455.549 126.725C399.977 102.958 335.928 99.692 271.921 107.645L267.28 92.8725C265.582 87.4744 266.046 81.6195 268.582 76.5599L269.055 75.6122C272.749 68.2174 280.297 63.4455 288.554 63.5385C290.507 63.5639 292.079 63.4539 292.721 63.107C298.046 60.2472 294.707 47.1244 292.239 36.8867L295.062 35.9983C298.435 34.9407 298.992 30.3887 295.975 28.5442L289.492 24.593C285.317 12.7054 268.024 -11.5181 243.378 7.50197C223.71 22.6724 231.545 38.7312 237.631 46.6675C240.445 50.3395 241.721 54.9592 241.003 59.5365C240.242 64.3846 237.369 68.6066 233.193 71.1618C223.693 76.9829 206.553 91.2903 200.864 120.692C82.7642 148.951 -24.0103 204.717 -62.8727 226.419C-69.2709 229.998 -68.6539 238.578 -61.7824 240.828L-38.3026 248.57L-56.4238 265.399C-61.7317 270.306 -58.7227 278.369 -51.4202 278.953C-13.5128 281.974 79.8229 286.906 180.503 273.572C171.958 295.24 117.105 434.701 119.125 439.769C121.322 445.261 149.028 452.791 156.424 455.143C164.893 457.833 173.978 456.243 175.069 455.143C176.168 454.043 147.473 441.182 150.304 421.807C153.127 402.431 175.069 381.567 181.653 355.211L232.112 292.617C232.112 292.617 268.312 379.367 275.994 391.449C283.677 403.531 302.323 426.587 303.421 436.47C304.52 446.352 299.736 460.321 312.896 460.321C323.478 460.321 347.127 456.192 356.72 452.292C358.993 451.369 360.464 449.17 360.464 446.716C360.464 443.458 357.878 440.785 354.615 440.692L339.427 440.26C329.073 439.964 319.996 433.255 316.691 423.423C310.842 406.019 301.291 378.707 293.549 361.794C293.549 361.794 278.758 283.15 266.148 257.522C341.21 238.789 412.867 206.841 461.373 153.359C469.047 144.899 466.064 131.209 455.566 126.725H455.549Z" fill="#003957" fill-opacity="0.05"/>
</svg>
