<?xml version="1.0" encoding="UTF-8"?>
<svg id="Capa_2" xmlns="http://www.w3.org/2000/svg" version="1.1" viewBox="0 0 19.6 19.6">
  <!-- Generator: Adobe Illustrator 29.3.1, SVG Export Plug-In . SVG Version: 2.1.0 Build 151)  -->
  <defs>
    <style>
      .st0 {
        fill: #523c57;
      }
    </style>
  </defs>
  <g id="Capa_1-2">
    <path class="st0" d="M13.5,12.6l2.7,2.7-.9.9-2.7-2.7c-1,.8-2.2,1.2-3.5,1.2-3.1,0-5.7-2.5-5.7-5.7s2.5-5.7,5.7-5.7,5.7,2.5,5.7,5.7-.4,2.5-1.2,3.5ZM12.2,12.1c.8-.8,1.2-1.9,1.2-3.1,0-2.4-2-4.4-4.4-4.4s-4.4,2-4.4,4.4,2,4.4,4.4,4.4,2.2-.4,3.1-1.2h0c0,0,0,0,0,0ZM8.4,8.4v-1.9h1.3v1.9h1.9v1.3h-1.9v1.9h-1.3v-1.9h-1.9v-1.3s1.9,0,1.9,0Z"/>
  </g>
</svg>