<?xml version="1.0" encoding="UTF-8"?>
<svg id="Capa_2" data-name="Capa 2" xmlns="http://www.w3.org/2000/svg" viewBox="0 0 70 70">
  <defs>
    <style>
      .cls-1 {
        fill: #56c7c1;
      }

      .cls-2 {
        fill: #fff;
      }
    </style>
  </defs>
  <g id="Capa_2-2" data-name="Capa 2">
    <g>
      <circle class="cls-1" cx="35" cy="35" r="35"/>
      <g>
        <path class="cls-2" d="M30.65,61.43c-14.58-2.4-24.48-16.2-22.09-30.78,2.4-14.58,16.2-24.48,30.78-22.09,14.58,2.4,24.48,16.2,22.09,30.78-2.4,14.58-16.2,24.48-30.78,22.09ZM38.96,10.91c-13.28-2.18-25.86,6.85-28.05,20.13-2.18,13.28,6.85,25.86,20.13,28.05,13.28,2.18,25.86-6.85,28.05-20.13,2.18-13.28-6.84-25.86-20.13-28.05Z"/>
        <path class="cls-2" d="M44.47,31.88l-5.48,13.09h-.05s-1.14-14.19-1.14-14.19l-4.07-.67s-2.86.13-4.43,8.15c-.33,1.68-.65,3.19-1.11,4.5l-.11.25h-.05s-.92-13.99-.92-13.99l-4.35-.72,1.98,20.64s3.87,1.42,5.91-3.15c1.81-4.36,1.52-7.28,3.62-11.79,0,0,0-.01,0-.01,0,0,0,0,0,0h.06s1.52,16.79,1.52,16.79l4.32.71,8.57-18.9-4.27-.7h0Z"/>
        <path class="cls-2" d="M27.57,19.54l.23-1.41,6.23,1.02-.23,1.41-2.28-.37-1.02,6.2-1.67-.28,1.02-6.2-2.28-.37Z"/>
        <path class="cls-2" d="M36.58,19.58l-.48,2.92,3.08.51.48-2.92,1.67.28-1.25,7.61-1.67-.28.54-3.28-3.08-.51-.54,3.28-1.67-.28,1.25-7.61,1.67.28Z"/>
        <path class="cls-2" d="M48.49,21.53l-.23,1.41-4.02-.66-.27,1.63,3.69.61-.21,1.3-3.69-.61-.31,1.87,4.1.67-.23,1.41-5.77-.95,1.25-7.61,5.69.94h0Z"/>
      </g>
    </g>
  </g>
</svg>