<svg width="85" height="63" viewBox="0 0 85 63" fill="none" xmlns="http://www.w3.org/2000/svg">
<path d="M82.7404 0.00328719C77.5213 0.286235 64.3314 1.61392 60.0294 7.81973C54.6191 15.6212 55.0122 23.7546 41.1508 28.7198C27.1379 33.7394 22.3214 33.8238 17.0763 40.8988C15.2269 43.3937 13.5318 45.1131 12.1096 46.298C10.3285 43.5093 6.74166 39.7004 0.0716491 38.5808C0.0716491 38.5808 -1.36826 49.3628 8.662 50.6633L8.67838 50.7C8.42861 51.1435 5.27308 56.8922 6.29808 62.9797C6.29808 62.9797 12.3375 63.9931 13.4922 51.708C16.039 51.4046 19.5808 50.5231 23.7927 48.246C32.5755 43.4998 41.6367 51.206 41.6367 51.206L39.0408 56.2637C38.3993 57.5139 39.5703 58.9218 40.9202 58.5232C45.143 57.2758 52.1856 54.5266 56.1478 49.3029C56.1478 49.3029 62.0958 52.1324 67.622 53.0302C68.7221 53.2084 69.4809 51.9597 68.8176 51.0673C66.8577 48.431 64.1799 43.9283 65.3113 40.1697C67.0297 34.4604 70.0842 17.7148 74.6674 12.7672C78.5353 8.59104 84.1162 6.78996 84.9583 2.5539C85.2299 1.18677 84.138 -0.0728912 82.7418 0.00328719H82.7404Z" fill="#003957"/>
</svg>
