<?xml version="1.0" encoding="UTF-8"?>
<svg id="Capa_1" xmlns="http://www.w3.org/2000/svg" version="1.1" viewBox="0 0 544 618">
  <!-- Generator: Adobe Illustrator 29.3.1, SVG Export Plug-In . SVG Version: 2.1.0 Build 151)  -->
  <defs>
    <style>
      .st0 {
        fill: #fff;
        isolation: isolate;
        opacity: .1;
      }
    </style>
  </defs>
  <path class="st0" d="M538.9,104.3c-135-73.3-225.2-2.3-266.2,45.1C254.5,92.7,197.5-19.1,36.4,2.8c-7.9,1.1-9.4,12-2,15.1l27.2,11.7-14.9,12.9c-4.9,4.3-2.9,12.4,3.5,13.7l83.5,17.9-22,12.4c-6.4,3.6-4.8,13.3,2.4,14.7l36.4,6.8c20.9,3.9,39.6,14.6,53.6,30-63-5.1-148.9,12.6-203.3,125.1-3.5,7.2,4.8,14.4,11.5,10l24.7-16.3,2.5,19.6c.8,6.5,8.7,9.2,13.4,4.7l61.1-59.8-1.9,25.2c-.5,7.4,8.4,11.4,13.5,6.1l25.8-26.6c16.5-17,38.5-27.1,61.6-28.9-53,27.2-154,101.4-106.6,257.1,2.3,7.7,13.3,7.3,15.2-.4l7.1-28.8,15.1,12.7c5,4.2,12.6.9,13-5.7l4.3-85.5,15.7,19.7c4.6,5.8,13.9,2.6,14.1-4.7l.9-37.1c.3-12.4,3-24.4,7.8-35.6-2.9,28.3,1,58.4,13.2,91.7,14.9,40.8,47.4,73.5,60,115.2,11.8,39.4-.1,81.7-4.4,121.4h108c.2-45.5,7.1-90.5-12.4-132.9-17.1-37.3-48.5-65.7-65.2-103.4-26.1-58.8-26.8-106-8.8-154.1,24.8,12.4,43.2,34.9,50.3,62l9.4,35.9c1.9,7.2,11.6,8.1,14.8,1.4l10.8-22.8,23.7,82.2c1.8,6.3,10,7.8,13.9,2.5l11.8-15.8,13.5,26.4c3.7,7.1,14.4,4.9,14.9-3.1,8.8-135-69.3-191.7-129.1-215.2,18.7-14.8,42.7-22,67.1-18.7,1.2.2,2.5.4,3.7.6l36.4,6.5c7.3,1.3,12.2-7.2,7.5-12.9l-16.2-19.4,84.5,12.9c6.5,1,11.2-5.9,8.1-11.6l-9.4-17.3,29.6-1.3c8-.3,10.5-11,3.5-14.8h.1Z"/>
</svg>