<svg width="514" height="513" viewBox="0 0 514 513" fill="none" xmlns="http://www.w3.org/2000/svg">
<g clip-path="url(#clip0_302_49718)">
<path d="M305.704 168.471L303.66 275.257L303.251 275.346L255.973 179.297L225.634 185.902C225.634 185.902 205.982 194.72 217.255 255.157C219.618 267.809 221.555 279.292 221.959 289.691L221.872 291.765L221.463 291.854L176.312 196.639L143.906 203.694L214.988 342.537C214.988 342.537 245.969 341.752 247.572 304.096C248.142 268.549 238.022 248.985 240.197 211.596C240.189 211.561 240.191 211.511 240.2 211.497C240.197 211.486 240.195 211.474 240.195 211.474L240.615 211.382L297.735 324.536L329.931 317.527L337.482 161.565L305.706 168.482L305.704 168.471Z" fill="#023854" fill-opacity="0.1"/>
<path d="M302.612 467.06C186.48 492.342 71.4395 418.436 46.1575 302.304C20.8755 186.171 94.782 71.1311 210.914 45.8491C327.046 20.5671 442.087 94.4736 467.369 210.606C492.651 326.738 418.744 441.778 302.612 467.06ZM214.983 64.5405C109.166 87.5769 41.8126 192.418 64.8489 298.234C87.8853 404.051 192.726 471.405 298.543 448.369C404.36 425.332 471.714 320.492 448.677 214.675C425.641 108.858 320.812 41.5016 214.983 64.5405Z" fill="#023854" fill-opacity="0.1"/>
<path d="M191.055 372.185L204.811 395.02L204.917 394.997L207.48 368.609L218.578 366.193L226.386 402.057L219.003 403.665L213.469 378.244L213.363 378.267L210.101 405.603L204.026 406.925L189.751 383.677L189.646 383.7L195.124 408.863L187.741 410.47L179.934 374.606L191.032 372.19L191.055 372.185Z" fill="#023854" fill-opacity="0.1"/>
<path d="M252.331 358.843L253.775 365.478L234.838 369.601L236.512 377.288L253.895 373.503L255.23 379.636L237.847 383.421L239.762 392.217L259.096 388.008L260.54 394.644L233.309 400.572L225.502 364.708L252.324 358.869L252.331 358.843ZM237.228 349.442L233.837 359.492L238.813 358.408L245.067 347.736L237.228 349.442Z" fill="#023854" fill-opacity="0.1"/>
<path d="M255.286 358.2L264.433 356.208L273.958 366.126L278.744 353.093L287.389 351.211L279.61 370.842L296.201 386.856L286.808 388.901L276.269 378.201L270.979 392.347L262.136 394.272L270.558 372.764L255.286 358.2Z" fill="#023854" fill-opacity="0.1"/>
<path d="M299.452 348.586L307.259 384.451L299.374 386.167L291.566 350.303L299.452 348.586Z" fill="#023854" fill-opacity="0.1"/>
<path d="M331.469 351.636C330.839 350.99 330.11 350.451 329.284 350.031C328.459 349.611 327.568 349.34 326.611 349.218C325.655 349.096 324.696 349.133 323.715 349.347C321.939 349.734 320.506 350.401 319.418 351.359C318.329 352.318 317.526 353.46 317.006 354.784C316.487 356.109 316.211 357.539 316.184 359.099C316.156 360.659 316.312 362.216 316.652 363.781C316.993 365.347 317.474 366.71 318.134 368.059C318.795 369.408 319.633 370.559 320.653 371.536C321.671 372.502 322.877 373.206 324.262 373.614C325.651 374.033 327.231 374.044 329.007 373.658C331.414 373.134 333.146 371.986 334.181 370.219C335.215 368.452 335.623 366.332 335.4 363.848L343.04 362.184C343.33 364.471 343.244 366.606 342.809 368.597C342.362 370.591 341.599 372.372 340.498 373.946C339.397 375.519 338.007 376.837 336.307 377.905C334.606 378.973 332.659 379.751 330.451 380.232C327.705 380.83 325.136 380.887 322.731 380.408C320.327 379.928 318.196 379.021 316.323 377.667C314.452 376.325 312.866 374.602 311.569 372.523C310.269 370.432 309.343 368.089 308.774 365.472C308.204 362.855 308.047 360.222 308.352 357.745C308.659 355.28 309.378 353.019 310.514 350.985C311.65 348.951 313.203 347.206 315.188 345.758C317.173 344.311 319.531 343.283 322.277 342.686C324.251 342.256 326.181 342.129 328.058 342.32C329.935 342.511 331.693 342.997 333.319 343.781C334.946 344.565 336.383 345.659 337.646 347.073C338.908 348.487 339.868 350.199 340.554 352.227L332.914 353.891C332.587 353.007 332.105 352.256 331.473 351.598L331.469 351.636Z" fill="#023854" fill-opacity="0.1"/>
<path d="M345.559 349.668C345.866 347.203 346.585 344.942 347.721 342.908C348.857 340.875 350.422 339.127 352.395 337.682C354.369 336.237 356.739 335.207 359.484 334.609C362.229 334.011 364.845 333.944 367.243 334.449C369.641 334.955 371.765 335.888 373.644 337.265C375.522 338.643 377.116 340.4 378.421 342.514C379.725 344.629 380.664 347.03 381.249 349.717C381.834 352.404 381.95 354.85 381.638 357.292C381.325 359.734 380.596 361.948 379.452 363.947C378.309 365.946 376.751 367.668 374.786 369.099C372.822 370.53 370.45 371.548 367.658 372.155C364.866 372.763 362.343 372.811 359.938 372.331C357.534 371.851 355.403 370.945 353.53 369.59C351.659 368.248 350.073 366.525 348.776 364.446C347.479 362.367 346.55 360.012 345.981 357.395C345.411 354.778 345.254 352.145 345.559 349.668ZM355.348 359.957C356.009 361.306 356.847 362.457 357.867 363.434C358.887 364.411 360.09 365.103 361.476 365.511C362.862 365.919 364.445 365.942 366.221 365.555C367.996 365.169 369.43 364.502 370.518 363.543C371.606 362.584 372.413 361.454 372.937 360.153C373.461 358.852 373.742 357.445 373.782 355.943C373.823 354.442 373.68 352.943 373.352 351.436C373.024 349.929 372.503 348.379 371.832 346.983C371.161 345.588 370.313 344.39 369.29 343.401C368.267 342.412 367.061 341.708 365.673 341.288C364.285 340.869 362.704 340.858 360.928 341.245C359.153 341.631 357.719 342.298 356.631 343.257C355.543 344.216 354.739 345.357 354.22 346.682C353.701 348.006 353.425 349.436 353.397 350.996C353.367 352.545 353.525 354.113 353.866 355.679C354.207 357.244 354.687 358.608 355.348 359.957Z" fill="#023854" fill-opacity="0.1"/>
<path d="M172.171 132.387C174.215 131.942 176.125 131.722 177.884 131.706C179.645 131.702 181.223 131.982 182.604 132.538C183.986 133.094 185.159 133.988 186.123 135.21C187.086 136.432 187.779 138.043 188.217 140.052C188.687 142.214 188.591 144.131 187.925 145.793C187.259 147.456 186.056 148.953 184.329 150.296C187.146 150.478 189.41 151.38 191.136 153.011C192.859 154.63 194.002 156.792 194.587 159.479C195.06 161.652 195.047 163.612 194.551 165.384C194.056 167.156 193.205 168.699 191.996 170.003C190.79 171.318 189.329 172.419 187.611 173.295C185.892 174.17 184.065 174.825 182.137 175.245L161.308 179.779L151.952 136.801L172.174 132.398L172.171 132.387ZM174.755 150.043C176.437 149.677 177.741 148.977 178.651 147.935C179.562 146.892 179.818 145.478 179.423 143.668C179.205 142.663 178.851 141.883 178.349 141.32C177.847 140.756 177.259 140.358 176.573 140.128C175.886 139.898 175.144 139.803 174.33 139.833C173.517 139.863 172.684 139.971 171.843 140.154L162.988 142.082L165.178 152.14L174.745 150.058L174.755 150.043ZM179.262 168.162C180.185 167.961 181.052 167.674 181.855 167.316C182.658 166.958 183.34 166.491 183.891 165.931C184.442 165.37 184.831 164.686 185.047 163.88C185.263 163.075 185.261 162.109 185.017 160.987C184.536 158.779 183.574 157.337 182.118 156.663C180.662 155.989 178.925 155.877 176.868 156.325L166.577 158.566L169.145 170.365L179.262 168.162Z" fill="#023854" fill-opacity="0.1"/>
<path d="M215.755 122.898L241.186 162.377L231.373 164.513L226.042 155.652L209.968 159.152L208.674 169.454L199.165 171.525L206.058 125.008L215.755 122.898ZM222.032 149.147L213.178 134.556L213.061 134.582L210.899 151.571L222.032 149.147Z" fill="#023854" fill-opacity="0.1"/>
<path d="M267.709 147.266C267.795 149.009 267.496 150.726 266.809 152.405C266.123 154.084 264.941 155.626 263.274 157.017C261.595 158.41 259.155 159.455 255.954 160.152C254.143 160.546 252.349 160.68 250.558 160.544C248.766 160.408 247.089 159.953 245.537 159.177C243.986 158.402 242.625 157.266 241.458 155.783C240.288 154.288 239.454 152.365 238.937 149.993L238.123 146.255L246.675 144.394L247.094 146.321C247.321 147.361 247.614 148.313 247.968 149.153C248.325 150.005 248.768 150.692 249.3 151.225C249.832 151.757 250.499 152.126 251.279 152.336C252.059 152.545 253.008 152.522 254.13 152.278C255.368 152.008 256.289 151.575 256.87 150.984C257.451 150.392 257.817 149.713 257.968 148.946C258.12 148.179 258.129 147.381 258.007 146.539C257.888 145.709 257.75 144.907 257.582 144.136L251.265 115.117L260.715 113.06L267.124 142.499C267.43 143.901 267.625 145.473 267.713 147.228L267.709 147.266Z" fill="#023854" fill-opacity="0.1"/>
<path d="M290.442 106.637L315.873 146.116L306.06 148.252L300.73 139.391L284.655 142.891L283.362 153.193L273.853 155.264L280.746 108.747L290.442 106.637ZM296.731 132.884L287.877 118.293L287.761 118.318L285.598 135.307L296.731 132.884Z" fill="#023854" fill-opacity="0.1"/>
</g>
<defs>
<clipPath id="clip0_302_49718">
<rect width="431.077" height="431.077" fill="white" transform="translate(0.308594 91.6978) rotate(-12.2817)"/>
</clipPath>
</defs>
</svg>
