<?xml version="1.0" encoding="UTF-8"?>
<svg id="Capa_2" data-name="Capa 2" xmlns="http://www.w3.org/2000/svg" viewBox="0 0 81.9 63.63">
  <defs>
    <style>
      .cls-1 {
        fill: #003957;
      }
    </style>
  </defs>
  <g id="Capa_1-2" data-name="Capa 1">
    <path class="cls-1" d="M68.8,36.2c.7-2,1.1-4.4,1.1-7.2C69.9,13,56.9,0,40.9,0S11.9,13,11.9,29s.6,6.2,1.7,8.5c-5.2.2-13.6,1.2-13.6,4.8,0,3.8,9.1,4.8,17.7,5,.8,0,1,1.2.3,1.5-2.3.9-4.2,2.2-3.9,4.1.6,3.3,16.3,2.8,24.9,2.2.5,0,.6.6,0,.7-3.3.7-6.9,1.2-6.8,4.3.1,4.8,29,4.6,28.9,0,0-2.7-1.9-3.7-3.8-4.5-.5-.2-.4-1,.2-1.1,4.4-.2,11.4-1.1,11.3-5.2,0-1.3-2.7-2.5-6-3.4-1.1-.3-.9-2,.3-1.9,8.5.2,18.8.9,18.8-4.1s-5.4-3.3-13.1-3.8v.1Z"/>
  </g>
</svg>