<svg width="831" height="717" viewBox="0 0 831 717" fill="none" xmlns="http://www.w3.org/2000/svg">
<path d="M815.21 196.871C728.568 159.815 628.708 154.723 528.915 167.123L521.681 144.09C519.032 135.674 519.757 126.545 523.71 118.656L524.448 117.179C530.206 105.649 541.974 98.2088 554.848 98.3539C557.892 98.3935 560.343 98.222 561.345 97.6812C569.647 93.2223 564.442 72.7617 560.594 56.7995L564.995 55.4144C570.253 53.7654 571.123 46.6682 566.418 43.7924L556.311 37.6318C549.801 19.0972 522.84 -18.6712 484.414 10.9842C453.75 34.6372 465.966 59.6754 475.454 72.0493C479.842 77.7746 481.832 84.9774 480.712 92.1142C479.526 99.6731 475.045 106.256 468.536 110.24C453.724 119.316 427 141.623 418.132 187.465C234.002 231.526 67.5306 318.474 6.94038 352.311C-3.035 357.891 -2.07304 371.267 8.64028 374.776L45.2474 386.847L16.9948 413.086C8.71935 420.737 13.4105 433.309 24.7959 434.219C83.8971 438.929 229.416 446.619 386.387 425.829C373.064 459.613 287.542 677.055 290.692 684.957C294.118 693.518 337.314 705.259 348.844 708.927C362.048 713.122 376.214 710.642 377.914 708.927C379.627 707.212 334.889 687.16 339.304 656.951C343.705 626.741 377.914 594.21 388.179 553.117L466.849 455.524C466.849 455.524 523.288 590.78 535.267 609.618C547.245 628.456 576.315 664.404 578.028 679.812C579.741 695.22 572.282 717 592.8 717C609.298 717 646.169 710.562 661.125 704.481C664.67 703.043 666.963 699.613 666.963 695.787C666.963 690.709 662.93 686.54 657.844 686.395L634.164 685.722C618.021 685.26 603.869 674.799 598.716 659.47C589.597 632.335 574.707 589.751 562.636 563.381C562.636 563.381 539.576 440.762 519.915 400.804C636.944 371.597 748.663 321.785 824.289 238.399C836.254 225.207 831.602 203.863 815.236 196.871H815.21Z" fill="#FAF0E6" fill-opacity="0.05"/>
</svg>
