<svg width="41" height="47" viewBox="0 0 41 47" fill="none" xmlns="http://www.w3.org/2000/svg">
<path d="M38.1936 30.4732H31.3828C33.5057 29.0004 35.1522 27.8759 34.4147 23.4304C33.5109 17.9764 34.9859 16.734 35.6737 14.8691C35.7904 14.5517 35.5902 14.1939 35.2602 14.1323C31.4124 13.4157 28.7263 18.1452 28.7263 18.1452C25.886 12.9313 28.8839 4.15722 30.0916 1.33043C30.2596 0.938289 29.92 0.509215 29.5047 0.591864C21.9469 2.09626 16.8314 11.2299 16.8314 11.2299C17.5898 8.7047 16.524 6.19444 15.6707 4.72961C15.4278 4.31285 14.8078 4.42188 14.7155 4.89579C14.4561 6.22873 13.601 8.28882 10.9497 10.2847C6.51596 13.6232 6.59607 19.5863 6.59607 19.5863L6.73103 21.0142C6.02662 20.5456 5.46762 19.9661 5.06099 19.4597C4.70748 19.0192 4.01003 19.1484 3.84024 19.6883C1.89244 25.887 6.8329 29.6089 8.72585 30.4714H2.5359C1.22634 30.4714 0.164062 31.5432 0.164062 32.8665V33.5532C0.164062 35.2554 1.53022 36.6349 3.21593 36.6349H8.974L7.37101 37.4834C5.96741 38.2255 5.42582 39.9761 6.16071 41.3934L7.23518 43.4658C7.68882 44.3407 8.75981 44.6792 9.62617 44.2202L17.137 40.2478L17.5663 44.1842C17.5663 45.4591 18.5894 46.4922 19.8519 46.4922H22.2368C23.4993 46.4922 24.5224 45.4591 24.5224 44.1842L24.7767 40.2443L32.2954 44.2211C33.1617 44.6792 34.2327 44.3416 34.6864 43.4667L35.7617 41.3943C36.4966 39.977 35.955 38.2264 34.5523 37.4843L32.9493 36.6358H37.5136C39.1993 36.6358 40.5654 35.2563 40.5654 33.5541V32.8674C40.5654 31.545 39.504 30.4723 38.1936 30.4723V30.4732Z" fill="#6D9F8B"/>
</svg>
