<svg width="32" height="32" viewBox="0 0 32 32" fill="none" xmlns="http://www.w3.org/2000/svg">
<g clip-path="url(#clip0_302_49683)">
<path d="M15.6524 3.54098C19.8021 3.54098 20.2935 3.55918 21.9255 3.63199C23.4423 3.69872 24.2613 3.95353 24.8073 4.16587C25.5293 4.44495 26.051 4.7847 26.591 5.32465C27.137 5.87067 27.4707 6.38636 27.7498 7.10832C27.9621 7.65434 28.2169 8.47944 28.2837 9.9901C28.3565 11.6282 28.3747 12.1196 28.3747 16.2633C28.3747 20.413 28.3565 20.9045 28.2837 22.5365C28.2169 24.0532 27.9621 24.8722 27.7498 25.4182C27.4707 26.1402 27.1309 26.6619 26.591 27.2019C26.045 27.7479 25.5293 28.0816 24.8073 28.3607C24.2613 28.573 23.4362 28.8278 21.9255 28.8946C20.2875 28.9674 19.7961 28.9856 15.6524 28.9856C11.5026 28.9856 11.0112 28.9674 9.37919 28.8946C7.86246 28.8278 7.04343 28.573 6.49741 28.3607C5.77545 28.0816 5.25369 27.7419 4.71374 27.2019C4.16772 26.6559 3.83404 26.1402 3.55496 25.4182C3.34262 24.8722 3.08781 24.0471 3.02107 22.5365C2.94827 20.8984 2.93007 20.407 2.93007 16.2633C2.93007 12.1135 2.94827 11.6221 3.02107 9.9901C3.08781 8.47337 3.34262 7.65434 3.55496 7.10832C3.83404 6.38636 4.17378 5.86461 4.71374 5.32465C5.25976 4.77863 5.77545 4.44495 6.49741 4.16587C7.04343 3.95353 7.86853 3.69872 9.37919 3.63199C11.0112 3.55918 11.5026 3.54098 15.6524 3.54098ZM15.6524 0.744141C11.4359 0.744141 10.908 0.762341 9.25178 0.835144C7.60158 0.907947 6.46707 1.17489 5.48423 1.55711C4.45893 1.95752 3.59136 2.48534 2.72986 3.35291C1.86229 4.21441 1.33447 5.08198 0.934059 6.10122C0.551844 7.09012 0.2849 8.21856 0.212097 9.86876C0.139294 11.5311 0.121094 12.0589 0.121094 16.2754C0.121094 20.4919 0.139294 21.0197 0.212097 22.676C0.2849 24.3262 0.551844 25.4607 0.934059 26.4435C1.33447 27.4688 1.86229 28.3364 2.72986 29.1979C3.59136 30.0594 4.45893 30.5933 5.47817 30.9876C6.46707 31.3699 7.59552 31.6368 9.24571 31.7096C10.902 31.7824 11.4298 31.8006 15.6463 31.8006C19.8628 31.8006 20.3906 31.7824 22.0469 31.7096C23.6971 31.6368 24.8316 31.3699 25.8144 30.9876C26.8337 30.5933 27.7012 30.0594 28.5627 29.1979C29.4242 28.3364 29.9581 27.4688 30.3525 26.4496C30.7347 25.4607 31.0016 24.3323 31.0744 22.6821C31.1472 21.0258 31.1654 20.498 31.1654 16.2815C31.1654 12.065 31.1472 11.5372 31.0744 9.88089C31.0016 8.2307 30.7347 7.09619 30.3525 6.11335C29.9702 5.08198 29.4424 4.21441 28.5749 3.35291C27.7134 2.49141 26.8458 1.95752 25.8266 1.56317C24.8377 1.18096 23.7092 0.914014 22.059 0.841211C20.3967 0.762341 19.8689 0.744141 15.6524 0.744141Z" fill="#523C57"/>
<path d="M15.6538 8.29736C11.2492 8.29736 7.67578 11.8708 7.67578 16.2753C7.67578 20.6799 11.2492 24.2533 15.6538 24.2533C20.0583 24.2533 23.6317 20.6799 23.6317 16.2753C23.6317 11.8708 20.0583 8.29736 15.6538 8.29736ZM15.6538 21.4504C12.7962 21.4504 10.4787 19.1328 10.4787 16.2753C10.4787 13.4178 12.7962 11.1003 15.6538 11.1003C18.5113 11.1003 20.8288 13.4178 20.8288 16.2753C20.8288 19.1328 18.5113 21.4504 15.6538 21.4504Z" fill="#523C57"/>
<path d="M25.8071 7.98168C25.8071 9.01306 24.9699 9.84422 23.9446 9.84422C22.9132 9.84422 22.082 9.00699 22.082 7.98168C22.082 6.95031 22.9193 6.11914 23.9446 6.11914C24.9699 6.11914 25.8071 6.95637 25.8071 7.98168Z" fill="#523C57"/>
</g>
<defs>
<clipPath id="clip0_302_49683">
<rect width="31.0625" height="31.0625" fill="white" transform="translate(0.121094 0.744141)"/>
</clipPath>
</defs>
</svg>
