<?xml version="1.0" encoding="UTF-8"?>
<svg id="Capa_2" data-name="Capa 2" xmlns="http://www.w3.org/2000/svg" viewBox="0 0 95 73">
  <defs>
    <style>
      .cls-1 {
        fill: #fff;
      }
    </style>
  </defs>
  <g id="Capa_1-2" data-name="Capa 1">
    <path class="cls-1" d="M79.82,41.45c.84-2.34,1.3-5.06,1.3-8.23C81.11,14.88,66.07,0,47.49,0S13.87,14.88,13.87,33.22c0,3.9.69,7.13,1.94,9.79C9.78,43.29,0,44.39,0,48.5c.01,4.32,10.58,5.53,20.51,5.67.98.01,1.22,1.36.3,1.7-2.71,1.01-4.93,2.51-4.54,4.7.68,3.81,18.91,3.19,28.86,2.56.54-.03.64.74.11.85-3.86.8-8.04,1.41-7.93,4.97.17,5.47,33.62,5.29,33.57,0-.03-3.05-2.25-4.3-4.4-5.19-.63-.26-.46-1.18.22-1.21,5.13-.22,13.24-1.3,13.17-5.97-.02-1.52-3.17-2.84-6.98-3.87-1.31-.35-1.04-2.27.32-2.24,9.9.22,21.8,1.07,21.8-4.69,0-2.49-6.27-3.78-15.18-4.35h0Z"/>
  </g>
</svg>