<svg width="45" height="53" viewBox="0 0 45 53" fill="none" xmlns="http://www.w3.org/2000/svg">
<path d="M44.1382 8.95267C33.1823 2.76285 25.857 8.76252 22.5317 12.7585C21.0453 7.97283 16.4231 -1.46729 3.33828 0.384996C2.69487 0.475673 2.57904 1.39565 3.17595 1.66064L5.38521 2.64488L4.17447 3.73301C3.77286 4.09396 3.94112 4.77624 4.4594 4.89245L11.2419 6.40579L9.45877 7.4499C8.93626 7.75538 9.06647 8.57412 9.65493 8.68857L12.6091 9.2652C14.3034 9.59622 15.8228 10.4959 16.9574 11.7945C11.8464 11.364 4.86777 12.8615 0.453478 22.3571C0.171085 22.9654 0.842403 23.5737 1.38521 23.2031L3.39409 21.8306L3.59531 23.483C3.66211 24.0306 4.30129 24.2622 4.68007 23.8766L9.6414 18.8286L9.4909 20.9529C9.44693 21.5753 10.1732 21.9151 10.5909 21.4679L12.6852 19.2239C14.0236 17.7906 15.8067 16.9358 17.6862 16.7817C13.3844 19.0786 5.18737 25.338 9.03095 38.4809C9.22034 39.1271 10.1098 39.0998 10.2671 38.4439L10.8471 36.0159L12.0722 37.0864C12.478 37.4412 13.0986 37.1595 13.1257 36.6084L13.4765 29.3947L14.7515 31.0603C15.1252 31.548 15.8803 31.2839 15.8946 30.6606L15.969 27.5327C15.9944 26.486 16.2142 25.47 16.5998 24.5316C16.3647 26.9226 16.6835 29.4651 17.6718 32.2708C18.8851 35.7121 21.5239 38.4765 22.541 41.997C23.5023 45.3239 22.53 48.8912 22.1859 52.2453H30.9536C30.968 48.4052 31.5277 44.61 29.945 41.0225C28.5541 37.8699 26.0092 35.4744 24.6513 32.2937C22.5326 27.3293 22.4784 23.3466 23.9394 19.2872C25.9542 20.3331 27.4482 22.2373 28.0206 24.5219L28.7799 27.5494C28.9312 28.1534 29.7243 28.2308 29.9805 27.6665L30.8564 25.7412L32.7807 32.6802C32.9278 33.2102 33.5941 33.3369 33.9111 32.895L34.8691 31.5612L35.9665 33.7868C36.2633 34.3881 37.1358 34.2032 37.1773 33.5289C37.89 22.137 31.5531 17.3496 26.6974 15.3599C28.2134 14.1125 30.1639 13.4989 32.1449 13.785C32.2455 13.7991 32.3453 13.8158 32.4451 13.8343L35.4034 14.3845C35.9936 14.4946 36.3926 13.7771 36.0088 13.2981L34.6966 11.6642L41.5543 12.7506C42.0785 12.8333 42.4675 12.2567 42.2147 11.7716L41.452 10.3076L43.8532 10.2019C44.5017 10.1737 44.7063 9.27137 44.1356 8.94915L44.1382 8.95267Z" fill="#6D9F8B"/>
</svg>
