<svg width="66" height="57" viewBox="0 0 66 57" fill="none" xmlns="http://www.w3.org/2000/svg">
<path d="M64.2521 15.4091C57.4623 12.5095 49.6367 12.111 41.8163 13.0813L41.2493 11.279C41.0418 10.6204 41.0986 9.90608 41.4084 9.28878L41.4662 9.17317C41.9175 8.27097 42.8396 7.68877 43.8486 7.70012C44.0871 7.70322 44.2792 7.6898 44.3577 7.64748C45.0083 7.29857 44.6004 5.69753 44.2988 4.44848L44.6437 4.34009C45.0558 4.21106 45.1239 3.6557 44.7553 3.43067L43.9632 2.9486C43.4531 1.49826 41.3402 -1.45712 38.3289 0.86342C35.9259 2.71427 36.8832 4.67352 37.6267 5.64178C37.9706 6.08979 38.1265 6.6534 38.0388 7.21186C37.9458 7.80335 37.5947 8.31845 37.0846 8.6302C35.9238 9.34039 33.8296 11.086 33.1346 14.6731C18.7051 18.1209 5.65931 24.9245 0.911079 27.5723C0.129346 28.0089 0.204731 29.0557 1.04429 29.3302L3.91306 30.2748L1.69901 32.3279C1.05049 32.9267 1.41812 33.9104 2.31035 33.9816C6.94189 34.3502 18.3457 34.952 30.6469 33.3251C29.6029 35.9688 22.9008 52.9836 23.1476 53.6019C23.4161 54.2719 26.8012 55.1906 27.7048 55.4776C28.7395 55.8058 29.8497 55.6118 29.9829 55.4776C30.1171 55.3434 26.6112 53.7743 26.9571 51.4104C27.3021 49.0465 29.9829 46.501 30.7873 43.2855L36.9524 35.6487C36.9524 35.6487 41.3753 46.2326 42.314 47.7067C43.2527 49.1807 45.5308 51.9937 45.665 53.1993C45.7993 54.405 45.2148 56.1093 46.8227 56.1093C48.1156 56.1093 51.005 55.6056 52.1771 55.1297C52.4549 55.0172 52.6346 54.7488 52.6346 54.4494C52.6346 54.052 52.3186 53.7258 51.9199 53.7145L50.0642 53.6618C48.7992 53.6257 47.6901 52.8071 47.2863 51.6076C46.5717 49.4842 45.4048 46.1521 44.4589 44.0886C44.4589 44.0886 42.6517 34.4936 41.111 31.3669C50.2821 29.0815 59.0371 25.1836 64.9636 18.6587C65.9013 17.6264 65.5368 15.9562 64.2542 15.4091H64.2521Z" fill="#6D9F8B"/>
</svg>
