<?xml version="1.0" encoding="UTF-8"?>
<svg id="Capa_1" xmlns="http://www.w3.org/2000/svg" version="1.1" viewBox="0 0 479 401">
  <!-- Generator: Adobe Illustrator 29.3.1, SVG Export Plug-In . SVG Version: 2.1.0 Build 151)  -->
  <defs>
    <style>
      .st0 {
        fill: #003957;
        fill-opacity: .1;
      }
    </style>
  </defs>
  <path class="st0" d="M445.2,46c-29.3,1.6-103.3,9.1-127.4,44-30.4,43.9-28.1,89.7-105.9,117.7-78.6,28.3-105.6,28.7-135.1,68.6-10.4,14-19.9,23.7-27.9,30.4-10-15.7-30.1-37.1-67.5-43.4,0,0-8.1,60.7,48.2,68v.2c-1.3,2.5-19,34.9-13.3,69.1,0,0,33.9,5.7,40.4-63.5,14.3-1.7,34.2-6.7,57.8-19.5,49.3-26.7,100.1,16.7,100.1,16.7l-14.6,28.5c-3.6,7,3,15,10.5,12.7,23.7-7,63.2-22.5,85.4-51.9,0,0,33.4,15.9,64.4,21,6.2,1,10.4-6,6.7-11.1-11-14.8-26-40.2-19.7-61.3,9.6-32.1,26.8-126.4,52.5-154.3,21.7-23.5,53-33.6,57.7-57.5,1.5-7.7-4.6-14.8-12.4-14.4h0Z"/>
</svg>