<svg width="32" height="32" viewBox="0 0 32 32" fill="none" xmlns="http://www.w3.org/2000/svg">
<path d="M15.5313 0.744141C6.95366 0.744141 0 7.6978 0 16.2754C0 23.559 5.01474 29.6708 11.7795 31.3494V21.0218H8.57699V16.2754H11.7795V14.2303C11.7795 8.94403 14.172 6.49382 19.3619 6.49382C20.346 6.49382 22.0438 6.68702 22.7384 6.87961V11.1818C22.3719 11.1433 21.7351 11.124 20.9442 11.124C18.3977 11.124 17.4137 12.0888 17.4137 14.5968V16.2754H22.4868L21.6152 21.0218H17.4137V31.693C25.1041 30.7642 31.0632 24.2162 31.0632 16.2754C31.0625 7.6978 24.1089 0.744141 15.5313 0.744141Z" fill="#523C57"/>
</svg>
