<svg width="56" height="42" viewBox="0 0 56 42" fill="none" xmlns="http://www.w3.org/2000/svg">
<path d="M54.0059 0.0119089C50.6224 0.196396 42.0717 1.06207 39.2828 5.10838C35.7755 10.1951 36.0303 15.4982 27.0443 18.7356C17.9601 22.0085 14.8376 22.0635 11.4373 26.6766C10.2384 28.3032 9.13952 29.4244 8.21756 30.1969C7.0629 28.3786 4.73765 25.8951 0.413636 25.1652C0.413636 25.1652 -0.519826 32.1952 5.98256 33.0432L5.99318 33.0671C5.83126 33.3563 3.7856 37.1045 4.45009 41.0737C4.45009 41.0737 8.36532 41.7345 9.11386 33.7243C10.7649 33.5265 13.0609 32.9518 15.7914 31.467C21.4851 28.3724 27.3593 33.3971 27.3593 33.3971L25.6764 36.6948C25.2606 37.5099 26.0197 38.4279 26.8948 38.168C29.6323 37.3547 34.1979 35.5621 36.7665 32.1562C36.7665 32.1562 40.6224 34.0011 44.205 34.5865C44.9181 34.7027 45.4101 33.8884 44.9801 33.3066C43.7095 31.5877 41.9735 28.6518 42.707 26.2012C43.821 22.4786 45.8012 11.5601 48.7723 8.33425C51.2798 5.61128 54.8978 4.43695 55.4437 1.67496C55.6198 0.783563 54.9119 -0.0377608 54.0068 0.0119089H54.0059Z" fill="#6D9F8B"/>
</svg>
