<svg width="862" height="862" viewBox="0 0 862 862" fill="none" xmlns="http://www.w3.org/2000/svg">
<path d="M369.957 800.744C165.954 767.204 27.283 573.962 60.8232 369.959C94.3635 165.956 287.605 27.285 491.608 60.8252C695.611 94.3654 834.282 287.607 800.742 491.61C767.202 695.613 573.96 834.284 369.957 800.744ZM486.21 93.6594C300.327 63.0983 124.218 189.475 93.6575 375.358C63.0964 561.24 189.473 737.349 375.356 767.91C561.238 798.471 737.347 672.094 767.908 486.211C798.469 300.329 672.113 124.224 486.21 93.6594Z" fill="#F5F0EC" fill-opacity="0.1"/>
<path d="M563.384 387.166L486.653 570.432L485.894 570.307L469.95 371.804L412.962 362.435C412.962 362.435 372.922 364.198 351.01 476.451C346.429 499.956 341.912 521.153 335.476 539.401L333.904 542.936L333.145 542.812L320.308 347.201L259.441 337.194L287.216 626.035C287.216 626.035 341.338 645.914 369.906 581.882C395.247 520.817 391.164 480.017 420.559 416.859C420.569 416.797 420.603 416.718 420.627 416.701C420.63 416.681 420.633 416.66 420.633 416.66L421.413 416.788L442.641 651.61L503.118 661.553L623.056 396.997L563.36 387.183L563.384 387.166Z" fill="#F5F0EC" fill-opacity="0.1"/>
<path d="M326.729 214.403L329.965 194.723L417.201 209.065L413.966 228.745L382.055 223.499L367.787 310.284L344.372 306.434L358.64 219.649L326.729 214.403Z" fill="#F5F0EC" fill-opacity="0.1"/>
<path d="M452.841 214.925L446.123 255.783L489.218 262.869L495.936 222.011L519.35 225.86L501.847 332.325L478.432 328.475L485.982 282.549L442.888 275.463L435.337 321.39L411.922 317.541L429.426 211.076L452.841 214.925Z" fill="#F5F0EC" fill-opacity="0.1"/>
<path d="M619.536 242.332L616.3 262.012L560.092 252.771L556.341 275.591L607.931 284.073L604.939 302.275L553.348 293.793L549.056 319.896L606.475 329.337L603.239 349.017L522.426 335.73L539.93 229.265L619.553 242.356L619.536 242.332Z" fill="#F5F0EC" fill-opacity="0.1"/>
</svg>
