<svg width="534" height="695" viewBox="0 0 534 695" fill="none" xmlns="http://www.w3.org/2000/svg">
<path d="M321.328 243.144L322.528 369.863L322.044 369.983L262.721 257.668L226.973 266.528C226.973 266.528 203.961 277.641 219.374 348.938C222.595 363.856 225.295 377.418 226.129 389.737L226.098 392.202L225.615 392.322L168.833 280.937L130.648 290.4L219.663 452.666C219.663 452.666 256.381 450.682 256.999 405.964C256.468 363.788 243.796 340.923 245.13 296.505C245.118 296.453 245.126 296.415 245.139 296.393C245.135 296.376 245.131 296.359 245.131 296.359L245.615 296.239L317.197 428.494L355.139 419.091L358.803 233.856L321.345 243.14L321.328 243.144Z" fill="#F5F0EC" fill-opacity="0.1"/>
<path d="M196.756 506.763L213.841 533.375L213.962 533.345L216.107 501.967L229.187 498.726L239.665 541.005L230.957 543.163L223.532 513.203L223.411 513.233L220.469 545.762L213.299 547.539L195.58 520.442L195.459 520.472L202.811 550.138L194.103 552.296L183.625 510.017L196.704 506.776L196.756 506.763Z" fill="#F5F0EC" fill-opacity="0.1"/>
<path d="M268.972 488.865L270.907 496.674L248.584 502.207L250.828 511.26L271.32 506.182L273.109 513.404L252.618 518.483L255.187 528.849L277.977 523.201L279.912 531.011L247.827 538.963L237.349 496.683L268.968 488.848L268.972 488.865ZM250.766 478.229L247.093 490.271L252.951 488.819L260.01 475.938L250.766 478.229Z" fill="#F5F0EC" fill-opacity="0.1"/>
<path d="M272.481 487.996L283.262 485.324L294.9 496.762L300.143 481.14L310.319 478.618L301.757 502.16L321.968 520.589L310.893 523.334L298.026 511.007L292.232 527.958L281.814 530.54L291.062 504.737L272.459 487.983L272.481 487.996Z" fill="#F5F0EC" fill-opacity="0.1"/>
<path d="M324.506 475.102L334.984 517.381L325.689 519.684L315.211 477.405L324.506 475.102Z" fill="#F5F0EC" fill-opacity="0.1"/>
<path d="M362.59 477.637C361.819 476.893 360.935 476.286 359.939 475.818C358.943 475.35 357.881 475.063 356.733 474.944C355.585 474.825 354.449 474.905 353.309 475.187C351.218 475.705 349.537 476.544 348.287 477.716C347.02 478.892 346.115 480.271 345.533 481.846C344.955 483.438 344.68 485.138 344.698 486.986C344.716 488.834 344.954 490.682 345.412 492.531C345.87 494.38 346.488 495.987 347.318 497.56C348.148 499.133 349.182 500.491 350.427 501.595C351.673 502.698 353.117 503.495 354.787 503.943C356.457 504.392 358.318 504.352 360.408 503.834C363.242 503.132 365.257 501.716 366.431 499.572C367.593 497.451 368.008 494.909 367.668 491.985L376.67 489.754C377.084 492.458 377.07 494.992 376.616 497.378C376.158 499.748 375.294 501.887 374.06 503.789C372.808 505.694 371.208 507.301 369.227 508.636C367.247 509.97 364.962 510.958 362.353 511.605C359.122 512.406 356.06 512.559 353.208 512.074C350.338 511.593 347.775 510.578 345.507 509.049C343.24 507.52 341.301 505.543 339.687 503.101C338.077 500.676 336.9 497.923 336.133 494.83C335.367 491.738 335.093 488.633 335.371 485.685C335.653 482.754 336.431 480.049 337.714 477.603C338.997 475.158 340.78 473.029 343.089 471.246C345.398 469.464 348.16 468.174 351.391 467.373C353.723 466.795 355.999 466.58 358.239 466.74C360.48 466.9 362.568 467.409 364.531 468.298C366.489 469.17 368.231 470.426 369.773 472.061C371.315 473.696 372.524 475.688 373.391 478.078L364.39 480.309C363.969 479.276 363.366 478.398 362.59 477.637Z" fill="#F5F0EC" fill-opacity="0.1"/>
<path d="M379.234 474.834C379.516 471.904 380.295 469.198 381.578 466.753C382.86 464.308 384.644 462.179 386.953 460.396C389.262 458.613 392.023 457.324 395.254 456.523C398.485 455.722 401.598 455.556 404.438 456.063C407.278 456.569 409.849 457.619 412.125 459.182C414.401 460.746 416.353 462.775 417.954 465.239C419.576 467.716 420.767 470.52 421.55 473.682C422.334 476.844 422.557 479.741 422.27 482.655C421.983 485.568 421.188 488.205 419.918 490.628C418.627 493.039 416.835 495.134 414.556 496.89C412.277 498.647 409.499 499.941 406.216 500.755C402.933 501.568 399.924 501.709 397.071 501.224C394.201 500.743 391.638 499.727 389.371 498.199C387.103 496.67 385.164 494.693 383.55 492.251C381.941 489.825 380.763 487.073 379.997 483.98C379.23 480.887 378.956 477.783 379.234 474.834ZM391.195 486.688C392.025 488.262 393.058 489.619 394.303 490.723C395.549 491.826 396.994 492.624 398.663 493.072C400.333 493.52 402.194 493.48 404.285 492.962C406.375 492.444 408.057 491.606 409.307 490.434C410.574 489.258 411.483 487.895 412.065 486.321C412.647 484.746 412.931 483.08 412.93 481.302C412.93 479.523 412.709 477.744 412.268 475.964C411.827 474.184 411.157 472.37 410.31 470.728C409.467 469.103 408.425 467.71 407.171 466.572C405.917 465.434 404.472 464.637 402.807 464.206C401.137 463.758 399.276 463.797 397.185 464.315C395.095 464.834 393.413 465.672 392.163 466.844C390.896 468.02 389.991 469.399 389.409 470.974C388.832 472.566 388.556 474.266 388.574 476.114C388.592 477.962 388.83 479.81 389.288 481.659C389.746 483.508 390.365 485.115 391.195 486.688Z" fill="#F5F0EC" fill-opacity="0.1"/>
<path d="M157.242 186.761C159.661 186.162 161.907 185.825 164.001 185.765C166.095 185.705 167.976 185.972 169.633 186.588C171.29 187.205 172.716 188.226 173.892 189.641C175.068 191.055 175.958 192.943 176.544 195.31C177.178 197.867 177.117 200.138 176.384 202.136C175.65 204.133 174.282 205.939 172.271 207.593C175.621 207.716 178.343 208.711 180.438 210.576C182.532 212.441 183.964 214.965 184.748 218.127C185.382 220.684 185.429 223.02 184.906 225.13C184.384 227.24 183.413 229.094 182.033 230.702C180.648 232.292 178.948 233.648 176.93 234.754C174.912 235.859 172.768 236.684 170.505 237.245L145.953 243.329L133.398 192.671L157.242 186.761ZM160.908 207.621C162.895 207.129 164.403 206.26 165.446 204.993C166.489 203.726 166.748 202.03 166.221 199.904C165.93 198.729 165.478 197.796 164.862 197.16C164.242 196.507 163.526 196.061 162.711 195.804C161.895 195.548 161.01 195.456 160.039 195.531C159.08 195.585 158.096 195.756 157.111 196L146.675 198.586L149.612 210.439L160.895 207.643L160.908 207.621ZM166.874 228.957C167.962 228.687 168.973 228.326 169.924 227.871C170.875 227.415 171.649 226.838 172.285 226.149C172.921 225.459 173.359 224.635 173.598 223.678C173.837 222.72 173.792 221.575 173.463 220.245C172.816 217.636 171.632 215.967 169.89 215.225C168.147 214.483 166.075 214.41 163.656 215.01L151.527 218.016L154.974 231.924L166.895 228.97L166.874 228.957Z" fill="#F5F0EC" fill-opacity="0.1"/>
<path d="M208.601 174.031L240.093 219.996L228.534 222.861L221.902 212.529L202.965 217.222L201.788 229.489L190.574 232.268L197.181 176.861L208.601 174.031ZM216.94 204.938L205.939 187.931L205.801 187.965L203.808 208.192L216.94 204.938Z" fill="#F5F0EC" fill-opacity="0.1"/>
<path d="M271.066 201.171C271.231 203.24 270.933 205.294 270.182 207.296C269.431 209.297 268.08 211.173 266.138 212.883C264.196 214.593 261.353 215.921 257.569 216.859C255.444 217.385 253.315 217.601 251.182 217.506C249.05 217.411 247.039 216.919 245.175 216.061C243.312 215.202 241.648 213.89 240.214 212.173C238.776 210.439 237.723 208.188 237.029 205.389L235.937 200.983L246.01 198.487L246.571 200.75C246.875 201.977 247.244 203.096 247.691 204.085C248.138 205.075 248.689 205.892 249.352 206.498C249.999 207.108 250.801 207.532 251.737 207.759C252.674 207.985 253.796 207.927 255.127 207.597C256.595 207.233 257.672 206.692 258.338 205.976C259.021 205.257 259.425 204.442 259.582 203.522C259.722 202.607 259.724 201.653 259.553 200.669C259.383 199.684 259.186 198.742 258.963 197.844L250.489 163.651L261.634 160.889L270.232 195.583C270.643 197.242 270.92 199.099 271.084 201.167L271.066 201.171Z" fill="#F5F0EC" fill-opacity="0.1"/>
<path d="M296.66 152.21L328.151 198.176L316.592 201.04L309.961 190.708L291.024 195.401L289.846 207.669L278.633 210.448L285.239 155.04L296.66 152.21ZM304.998 183.117L293.998 166.11L293.86 166.144L291.867 186.371L304.998 183.117Z" fill="#F5F0EC" fill-opacity="0.1"/>
<path d="M199.379 75.3584C290.295 52.8268 382.593 108.463 405.125 199.379L458.255 413.763C480.787 504.68 425.151 596.978 334.235 619.509C243.318 642.041 151.02 586.405 128.489 495.489L75.3584 281.104C52.8268 190.188 108.463 97.89 199.379 75.3584ZM192.528 47.7137C86.1995 74.0648 21.3626 181.627 47.7138 287.955L100.844 502.34C127.195 608.668 234.758 673.505 341.086 647.154C447.414 620.803 512.251 513.241 485.9 406.912L432.77 192.528C406.418 86.1995 298.856 21.3626 192.528 47.7137Z" fill="#F5F0EC" fill-opacity="0.1"/>
</svg>
